<?xml version="1.0" encoding="utf-8"?>
<!-- Generator: Adobe Illustrator 17.0.0, SVG Export Plug-In . SVG Version: 6.00 Build 0)  -->
<!DOCTYPE svg PUBLIC "-//W3C//DTD SVG 1.1//EN" "http://www.w3.org/Graphics/SVG/1.1/DTD/svg11.dtd">
<svg version="1.1" xmlns="http://www.w3.org/2000/svg" xmlns:xlink="http://www.w3.org/1999/xlink" x="0px" y="0px" width="512px"
	 height="512px" viewBox="0 0 512 512" enable-background="new 0 0 512 512" xml:space="preserve">
<g id="Layer_1" display="none">
	<image overflow="visible" width="512" height="512" xlink:href="snowflake (1).png"  transform="matrix(0.8001 0 0 0.8001 51 51)">
	</image>
	<path fill="#5BDDFC" d="M255.818,209.818c-25.506,0-46.182,20.677-46.182,46.182s20.676,46.182,46.182,46.182
		C281.323,302.182,302,281.506,302,256S281.323,209.818,255.818,209.818z M255.818,281.682c-14.184,0-25.682-11.498-25.682-25.682
		s11.498-25.682,25.682-25.682c14.184,0,25.682,11.498,25.682,25.682S270.002,281.682,255.818,281.682z"/>
	<g>
		<g display="inline">
			<path fill="#5BDDFC" d="M308.014,97.852c-3.276-4.226-9.358-4.997-13.584-1.72l-28.93,22.425V71c0-5.347-4.335-9.682-9.682-9.682
				c-5.347,0-9.682,4.335-9.682,9.682v46.718l-28.639-21.657c-4.265-3.225-10.337-2.383-13.563,1.883
				c-3.225,4.265-2.383,10.337,1.883,13.563l40.319,30.49V221H265.5v-77.942l40.793-31.622
				C310.52,108.16,311.29,102.078,308.014,97.852z"/>
		</g>
		<g display="inline">
			<path fill="#5BDDFC" d="M144.954,131.721c-5.298,0.724-9.006,5.606-8.282,10.904l4.956,36.266l-41.185-23.778
				c-4.631-2.674-10.553-1.087-13.226,3.544c-2.674,4.631-1.087,10.553,3.544,13.226l40.459,23.359l-33.075,13.973
				c-4.926,2.081-7.232,7.761-5.151,12.687c2.081,4.926,7.761,7.232,12.687,5.151l46.565-19.672l68.419,39.502l9.682-16.77
				l-67.5-38.971l-6.989-51.139C155.134,134.705,150.252,130.997,144.954,131.721z"/>
		</g>
		<g display="inline">
			<path fill="#5BDDFC" d="M92.758,289.869c-2.022,4.95,0.352,10.603,5.302,12.625l33.886,13.841L90.76,340.113
				c-4.631,2.674-6.218,8.595-3.544,13.226c2.674,4.631,8.595,6.218,13.226,3.544l40.459-23.359l-4.437,35.63
				c-0.661,5.306,3.105,10.144,8.412,10.804c5.306,0.661,10.144-3.105,10.804-8.412l6.246-50.162l68.419-39.502l-9.682-16.77
				l-67.5,38.971l-47.782-19.517C100.432,282.545,94.78,284.919,92.758,289.869z"/>
		</g>
	</g>
	<g>
		<g display="inline">
			<path fill="#5BDDFC" d="M203.588,414.115c3.276,4.226,9.358,4.997,13.584,1.72l28.93-22.425v47.556
				c0,5.347,4.335,9.682,9.682,9.682c5.347,0,9.682-4.335,9.682-9.682v-46.718l28.639,21.657c4.265,3.225,10.337,2.383,13.563-1.883
				c3.225-4.265,2.383-10.337-1.883-13.563l-40.319-30.49v-79.003h-19.365v77.942l-40.793,31.622
				C201.082,403.806,200.312,409.888,203.588,414.115z"/>
		</g>
		<g display="inline">
			<path fill="#5BDDFC" d="M366.648,380.245c5.298-0.724,9.006-5.606,8.282-10.904l-4.956-36.266l41.185,23.778
				c4.631,2.674,10.553,1.087,13.226-3.544c2.674-4.631,1.087-10.553-3.544-13.226l-40.459-23.359l33.075-13.973
				c4.926-2.081,7.232-7.761,5.151-12.687c-2.081-4.926-7.761-7.232-12.687-5.151l-46.565,19.672l-68.419-39.502l-9.682,16.77
				l67.5,38.971l6.989,51.139C356.468,377.261,361.35,380.969,366.648,380.245z"/>
		</g>
		<g display="inline">
			<path fill="#5BDDFC" d="M418.844,222.097c2.022-4.95-0.352-10.603-5.302-12.625l-33.886-13.841l41.185-23.778
				c4.631-2.674,6.218-8.595,3.544-13.226c-2.674-4.631-8.595-6.218-13.226-3.544L370.7,178.442l4.437-35.63
				c0.661-5.306-3.105-10.144-8.412-10.804c-5.306-0.661-10.144,3.105-10.804,8.412l-6.246,50.162l-68.419,39.502l9.682,16.77
				l67.5-38.971l47.782,19.517C411.17,229.421,416.822,227.047,418.844,222.097z"/>
		</g>
	</g>
	<linearGradient id="SVGID_1_" gradientUnits="userSpaceOnUse" x1="255.8007" y1="61.3177" x2="255.8007" y2="450.6484">
		<stop  offset="0" style="stop-color:#04BCFF"/>
		<stop  offset="1" style="stop-color:#5458FF"/>
	</linearGradient>
	<path fill="url(#SVGID_1_)" d="M420.841,340.083l-40.459-23.359l33.075-13.973c4.926-2.081,7.232-7.761,5.151-12.687
		c-2.081-4.926-7.761-7.232-12.687-5.151l-46.565,19.672l-59.585-34.401c1.441-4.47,2.229-9.234,2.229-14.183
		c0-4.969-0.794-9.751-2.247-14.237l58.684-33.881l47.782,19.517c4.95,2.022,10.603-0.352,12.625-5.302
		c2.022-4.95-0.352-10.603-5.302-12.625l-33.886-13.841l41.185-23.778c4.631-2.674,6.218-8.595,3.544-13.226
		c-2.674-4.631-8.595-6.218-13.226-3.544L370.7,178.442l4.437-35.63c0.661-5.306-3.105-10.144-8.412-10.804
		c-5.306-0.661-10.144,3.105-10.804,8.412l-6.246,50.162l-59.623,34.423c-6.382-7.045-14.911-12.104-24.551-14.162v-67.785
		l40.793-31.622c4.226-3.276,4.997-9.358,1.721-13.584c-3.276-4.226-9.358-4.997-13.584-1.72l-28.93,22.425V71
		c0-5.347-4.335-9.682-9.682-9.682c-5.347,0-9.682,4.335-9.682,9.682v46.718l-28.639-21.657c-4.265-3.225-10.337-2.383-13.563,1.883
		c-3.225,4.265-2.383,10.337,1.883,13.563l40.319,30.49v68.846c-9.656,2.061-18.195,7.133-24.58,14.195l-58.709-33.896
		l-6.989-51.139c-0.724-5.298-5.606-9.006-10.904-8.282c-5.298,0.724-9.006,5.606-8.282,10.904l4.956,36.266l-41.185-23.778
		c-4.631-2.674-10.553-1.087-13.226,3.544c-2.674,4.631-1.087,10.553,3.544,13.226l40.459,23.359l-33.075,13.973
		c-4.926,2.081-7.232,7.761-5.151,12.687c2.081,4.926,7.761,7.232,12.687,5.151l46.565-19.672l59.623,34.423
		c-1.444,4.473-2.232,9.241-2.232,14.195c0,4.953,0.788,9.72,2.232,14.192l-58.703,33.892l-47.782-19.517
		c-4.95-2.022-10.603,0.352-12.625,5.302c-2.022,4.95,0.352,10.603,5.302,12.625l33.886,13.841L90.76,340.113
		c-4.631,2.674-6.218,8.595-3.544,13.226c2.674,4.631,8.595,6.218,13.226,3.544l40.459-23.359l-4.437,35.63
		c-0.661,5.306,3.105,10.144,8.412,10.804c5.306,0.661,10.144-3.105,10.804-8.412l6.246-50.162l59.626-34.425
		c6.378,7.055,14.905,12.124,24.548,14.19v67.759l-40.793,31.622c-4.226,3.276-4.997,9.358-1.721,13.584
		c3.276,4.226,9.358,4.997,13.584,1.72l28.93-22.425v47.556c0,5.347,4.335,9.682,9.682,9.682c5.347,0,9.682-4.335,9.682-9.682
		v-46.718l28.639,21.657c4.265,3.225,10.337,2.383,13.563-1.883c3.225-4.265,2.383-10.337-1.883-13.563l-40.319-30.49v-68.804
		c9.674-2.057,18.229-7.137,24.622-14.212l58.667,33.871l6.989,51.139c0.724,5.298,5.606,9.006,10.904,8.282
		c5.298-0.724,9.006-5.606,8.282-10.904l-4.956-36.266l41.185,23.778c4.631,2.674,10.553,1.087,13.226-3.544
		C427.059,348.678,425.472,342.756,420.841,340.083z M255.818,281.682c-14.184,0-25.682-11.498-25.682-25.682
		s11.498-25.682,25.682-25.682c14.184,0,25.682,11.498,25.682,25.682S270.002,281.682,255.818,281.682z"/>
	<linearGradient id="snow_1_" gradientUnits="userSpaceOnUse" x1="255.8007" y1="61.3177" x2="255.8007" y2="450.6484">
		<stop  offset="0" style="stop-color:#04BCFF"/>
		<stop  offset="1" style="stop-color:#5458FF"/>
	</linearGradient>
	<path id="snow" fill="url(#snow_1_)" d="M420.841,340.083l-40.459-23.359l33.075-13.973c4.926-2.081,7.232-7.761,5.151-12.687
		c-2.081-4.926-7.761-7.232-12.687-5.151l-46.565,19.672l-59.585-34.401c1.441-4.47,2.229-9.234,2.229-14.183
		c0-4.969-0.794-9.751-2.247-14.237l58.684-33.881l47.782,19.517c4.95,2.022,10.603-0.352,12.625-5.302
		c2.022-4.95-0.352-10.603-5.302-12.625l-33.886-13.841l41.185-23.778c4.631-2.674,6.218-8.595,3.544-13.226
		c-2.674-4.631-8.595-6.218-13.226-3.544L370.7,178.442l4.437-35.63c0.661-5.306-3.105-10.144-8.412-10.804
		c-5.306-0.661-10.144,3.105-10.804,8.412l-6.246,50.162l-59.623,34.423c-6.382-7.045-14.911-12.104-24.551-14.162v-67.785
		l40.793-31.622c4.226-3.276,4.997-9.358,1.721-13.584c-3.276-4.226-9.358-4.997-13.584-1.72l-28.93,22.425V71
		c0-5.347-4.335-9.682-9.682-9.682c-5.347,0-9.682,4.335-9.682,9.682v46.718l-28.639-21.657c-4.265-3.225-10.337-2.383-13.563,1.883
		c-3.225,4.265-2.383,10.337,1.883,13.563l40.319,30.49v68.846c-9.656,2.061-18.195,7.133-24.58,14.195l-58.709-33.896
		l-6.989-51.139c-0.724-5.298-5.606-9.006-10.904-8.282c-5.298,0.724-9.006,5.606-8.282,10.904l4.956,36.266l-41.185-23.778
		c-4.631-2.674-10.553-1.087-13.226,3.544c-2.674,4.631-1.087,10.553,3.544,13.226l40.459,23.359l-33.075,13.973
		c-4.926,2.081-7.232,7.761-5.151,12.687c2.081,4.926,7.761,7.232,12.687,5.151l46.565-19.672l59.623,34.423
		c-1.444,4.473-2.232,9.241-2.232,14.195c0,4.953,0.788,9.72,2.232,14.192l-58.703,33.892l-47.782-19.517
		c-4.95-2.022-10.603,0.352-12.625,5.302c-2.022,4.95,0.352,10.603,5.302,12.625l33.886,13.841L90.76,340.113
		c-4.631,2.674-6.218,8.595-3.544,13.226c2.674,4.631,8.595,6.218,13.226,3.544l40.459-23.359l-4.437,35.63
		c-0.661,5.306,3.105,10.144,8.412,10.804c5.306,0.661,10.144-3.105,10.804-8.412l6.246-50.162l59.626-34.425
		c6.378,7.055,14.905,12.124,24.548,14.19v67.759l-40.793,31.622c-4.226,3.276-4.997,9.358-1.721,13.584
		c3.276,4.226,9.358,4.997,13.584,1.72l28.93-22.425v47.556c0,5.347,4.335,9.682,9.682,9.682c5.347,0,9.682-4.335,9.682-9.682
		v-46.718l28.639,21.657c4.265,3.225,10.337,2.383,13.563-1.883c3.225-4.265,2.383-10.337-1.883-13.563l-40.319-30.49v-68.804
		c9.674-2.057,18.229-7.137,24.622-14.212l58.667,33.871l6.989,51.139c0.724,5.298,5.606,9.006,10.904,8.282
		c5.298-0.724,9.006-5.606,8.282-10.904l-4.956-36.266l41.185,23.778c4.631,2.674,10.553,1.087,13.226-3.544
		C427.059,348.678,425.472,342.756,420.841,340.083z M255.818,281.682c-14.184,0-25.682-11.498-25.682-25.682
		s11.498-25.682,25.682-25.682c14.184,0,25.682,11.498,25.682,25.682S270.002,281.682,255.818,281.682z"/>
	<g id="Hibernate-small">
		<linearGradient id="SVGID_2_" gradientUnits="userSpaceOnUse" x1="361.9695" y1="73.3451" x2="361.9695" y2="129.6238">
			<stop  offset="0" style="stop-color:#EDF7FF"/>
			<stop  offset="1" style="stop-color:#B0DDFF"/>
		</linearGradient>
		<path display="inline" fill="url(#SVGID_2_)" d="M381.372,113.969h-21.056l26.788-26.147c2.225-1.38,3.712-3.838,3.712-6.649
			c0-4.323-3.504-7.827-7.827-7.827h-40.422c-4.323,0-7.827,3.504-7.827,7.827c0,4.323,3.504,7.827,7.827,7.827h20.917
			l-27.081,26.433c-1.983,1.42-3.28,3.738-3.28,6.363c0,4.323,3.504,7.827,7.827,7.827h40.422c4.323,0,7.827-3.504,7.827-7.827
			C389.199,117.473,385.695,113.969,381.372,113.969z"/>
		<linearGradient id="SVGID_3_" gradientUnits="userSpaceOnUse" x1="333.1228" y1="162.5582" x2="333.1228" y2="218.8369">
			<stop  offset="0" style="stop-color:#EDF7FF"/>
			<stop  offset="1" style="stop-color:#B0DDFF"/>
		</linearGradient>
		<path display="inline" fill="url(#SVGID_3_)" d="M352.525,203.182h-21.056l26.788-26.147c2.225-1.38,3.712-3.838,3.712-6.649
			c0-4.323-3.504-7.827-7.827-7.827H313.72c-4.323,0-7.827,3.504-7.827,7.827c0,4.323,3.504,7.827,7.827,7.827h20.917
			l-27.081,26.433c-1.983,1.42-3.28,3.738-3.28,6.363c0,4.323,3.504,7.827,7.827,7.827h40.422c4.323,0,7.827-3.504,7.827-7.827
			C360.353,206.686,356.848,203.182,352.525,203.182z"/>
		<linearGradient id="SVGID_4_" gradientUnits="userSpaceOnUse" x1="411.6362" y1="199.7213" x2="411.6362" y2="256">
			<stop  offset="0" style="stop-color:#EDF7FF"/>
			<stop  offset="1" style="stop-color:#B0DDFF"/>
		</linearGradient>
		<path display="inline" fill="url(#SVGID_4_)" d="M431.039,240.345h-21.056l26.788-26.147c2.225-1.38,3.712-3.838,3.712-6.649
			c0-4.323-3.504-7.827-7.827-7.827h-40.422c-4.323,0-7.827,3.504-7.827,7.827c0,4.323,3.504,7.827,7.827,7.827h20.917
			l-27.081,26.433c-1.983,1.42-3.28,3.738-3.28,6.363c0,4.323,3.504,7.827,7.827,7.827h40.422c4.323,0,7.827-3.504,7.827-7.827
			C438.866,243.85,435.362,240.345,431.039,240.345z"/>
		<linearGradient id="SVGID_5_" gradientUnits="userSpaceOnUse" x1="255.8007" y1="61.3177" x2="255.8007" y2="450.6484">
			<stop  offset="0" style="stop-color:#04BCFF"/>
			<stop  offset="1" style="stop-color:#5458FF"/>
		</linearGradient>
		<path display="inline" fill="url(#SVGID_5_)" d="M420.841,340.083l-40.459-23.359l33.075-13.973
			c4.926-2.081,7.232-7.761,5.151-12.687c-2.081-4.926-7.761-7.232-12.687-5.151l-46.565,19.672l-59.585-34.401
			c1.441-4.47,2.229-9.234,2.229-14.183c0-3.223-0.339-6.365-0.97-9.4c-0.135-0.653-0.287-1.299-0.449-1.941
			c-0.072-0.283-0.145-0.566-0.222-0.847c-0.181-0.662-0.373-1.32-0.582-1.969c-0.008-0.026-0.015-0.053-0.024-0.079l0,0
			c-2.249-6.945-6.095-13.17-11.11-18.239c-0.039-0.039-0.08-0.077-0.119-0.117c-0.546-0.548-1.107-1.08-1.679-1.599
			c-0.089-0.081-0.177-0.162-0.266-0.242c-0.612-0.547-1.238-1.08-1.878-1.594c-0.053-0.042-0.107-0.083-0.161-0.125
			c-0.586-0.466-1.184-0.915-1.792-1.353c-0.122-0.087-0.242-0.176-0.365-0.262c-0.656-0.462-1.323-0.91-2.003-1.338
			c-0.085-0.053-0.172-0.104-0.258-0.156c-0.599-0.371-1.208-0.727-1.824-1.072c-0.166-0.093-0.332-0.187-0.5-0.277
			c-0.685-0.371-1.378-0.729-2.083-1.066c-3.217-1.537-6.639-2.716-10.215-3.479v-67.785l40.793-31.622
			c4.226-3.276,4.997-9.358,1.721-13.584c-3.276-4.226-9.358-4.997-13.584-1.72l-28.93,22.425V71c0-5.347-4.335-9.682-9.682-9.682
			c-5.347,0-9.682,4.335-9.682,9.682v46.718l-28.639-21.657c-4.265-3.225-10.337-2.383-13.563,1.883
			c-3.225,4.265-2.383,10.337,1.883,13.563l40.319,30.49v68.846c-9.656,2.061-18.195,7.133-24.58,14.195l-58.709-33.896
			l-6.989-51.139c-0.724-5.298-5.606-9.006-10.904-8.282c-5.298,0.724-9.006,5.606-8.282,10.904l4.956,36.266l-41.185-23.778
			c-4.631-2.674-10.553-1.087-13.226,3.544c-2.674,4.631-1.087,10.553,3.544,13.226l40.459,23.359l-33.075,13.973
			c-4.926,2.081-7.232,7.761-5.151,12.687c2.081,4.926,7.761,7.232,12.687,5.151l46.565-19.672l59.623,34.423
			c-1.444,4.473-2.232,9.241-2.232,14.195c0,4.953,0.788,9.72,2.232,14.192l-58.703,33.892l-47.782-19.517
			c-4.95-2.022-10.603,0.352-12.625,5.302c-2.022,4.95,0.352,10.603,5.302,12.625l33.886,13.841L90.76,340.113
			c-4.631,2.674-6.218,8.595-3.544,13.226c2.674,4.631,8.595,6.218,13.226,3.544l40.459-23.359l-4.437,35.63
			c-0.661,5.306,3.105,10.144,8.412,10.804c5.306,0.661,10.144-3.105,10.804-8.412l6.246-50.162l59.626-34.425
			c6.378,7.055,14.905,12.124,24.548,14.19v67.759l-40.793,31.622c-4.226,3.276-4.997,9.358-1.721,13.584
			c3.276,4.226,9.358,4.997,13.584,1.72l28.93-22.425v47.556c0,5.347,4.335,9.682,9.682,9.682c5.347,0,9.682-4.335,9.682-9.682
			v-46.718l28.639,21.657c4.265,3.225,10.337,2.383,13.563-1.883c3.225-4.265,2.383-10.337-1.883-13.563l-40.319-30.49v-68.804
			c9.674-2.057,18.229-7.137,24.622-14.212l58.667,33.871l6.989,51.139c0.724,5.298,5.606,9.006,10.904,8.282
			c5.298-0.724,9.006-5.606,8.282-10.904l-4.956-36.266l41.185,23.778c4.631,2.674,10.553,1.087,13.226-3.544
			C427.059,348.678,425.472,342.756,420.841,340.083z M255.818,281.682c-14.184,0-25.682-11.498-25.682-25.682
			s11.498-25.682,25.682-25.682c14.184,0,25.682,11.498,25.682,25.682S270.002,281.682,255.818,281.682z"/>
	</g>
	<g id="Hibernate" display="inline">
		<linearGradient id="SVGID_6_" gradientUnits="userSpaceOnUse" x1="392.4123" y1="16.7344" x2="392.4123" y2="90.3594">
			<stop  offset="0" style="stop-color:#EDF7FF"/>
			<stop  offset="1" style="stop-color:#B0DDFF"/>
		</linearGradient>
		<path fill="url(#SVGID_6_)" d="M417.795,69.879h-27.546l35.045-34.206c2.911-1.806,4.856-5.021,4.856-8.699
			c0-5.655-4.585-10.24-10.24-10.24h-52.88c-5.655,0-10.24,4.585-10.24,10.24c0,5.655,4.585,10.24,10.24,10.24h27.365
			l-35.428,34.581c-2.595,1.858-4.291,4.89-4.291,8.324c0,5.655,4.585,10.24,10.24,10.24h52.88c5.655,0,10.24-4.585,10.24-10.24
			C428.035,74.464,423.45,69.879,417.795,69.879z"/>
		<linearGradient id="SVGID_7_" gradientUnits="userSpaceOnUse" x1="354.6744" y1="133.4449" x2="354.6744" y2="207.0699">
			<stop  offset="0" style="stop-color:#EDF7FF"/>
			<stop  offset="1" style="stop-color:#B0DDFF"/>
		</linearGradient>
		<path fill="url(#SVGID_7_)" d="M380.057,186.59h-27.546l35.045-34.206c2.911-1.806,4.856-5.021,4.856-8.699
			c0-5.655-4.585-10.24-10.24-10.24h-52.88c-5.655,0-10.24,4.585-10.24,10.24c0,5.655,4.585,10.24,10.24,10.24h27.365
			l-35.428,34.581c-2.595,1.858-4.291,4.89-4.291,8.324c0,5.655,4.585,10.24,10.24,10.24h52.88c5.655,0,10.24-4.585,10.24-10.24
			C390.297,191.174,385.712,186.59,380.057,186.59z"/>
		<linearGradient id="SVGID_8_" gradientUnits="userSpaceOnUse" x1="457.3873" y1="182.0625" x2="457.3873" y2="255.6875">
			<stop  offset="0" style="stop-color:#EDF7FF"/>
			<stop  offset="1" style="stop-color:#B0DDFF"/>
		</linearGradient>
		<path fill="url(#SVGID_8_)" d="M482.77,235.207h-27.546l35.045-34.206c2.911-1.806,4.856-5.021,4.856-8.699
			c0-5.655-4.585-10.24-10.24-10.24h-52.88c-5.655,0-10.24,4.585-10.24,10.24c0,5.655,4.585,10.24,10.24,10.24h27.365
			l-35.428,34.581c-2.595,1.858-4.291,4.89-4.291,8.324c0,5.655,4.585,10.24,10.24,10.24h52.88c5.655,0,10.24-4.585,10.24-10.24
			C493.01,239.792,488.425,235.207,482.77,235.207z"/>
		<linearGradient id="SVGID_9_" gradientUnits="userSpaceOnUse" x1="253.52" y1="1" x2="253.52" y2="510.3307">
			<stop  offset="0" style="stop-color:#04BCFF"/>
			<stop  offset="1" style="stop-color:#5458FF"/>
		</linearGradient>
		<path fill="url(#SVGID_9_)" d="M469.429,365.686l-52.93-30.559l43.27-18.28c6.444-2.722,9.461-10.153,6.739-16.597
			c-2.723-6.444-10.153-9.461-16.597-6.739l-60.917,25.735l-77.95-45.004c1.886-5.848,2.915-12.08,2.915-18.555
			c0-4.216-0.444-8.327-1.269-12.298c-0.177-0.854-0.376-1.699-0.588-2.539c-0.094-0.371-0.189-0.741-0.29-1.109
			c-0.237-0.866-0.488-1.726-0.761-2.576c-0.011-0.034-0.02-0.069-0.031-0.103l0.001,0c-2.942-9.086-7.974-17.23-14.535-23.861
			c-0.051-0.052-0.104-0.101-0.155-0.153c-0.714-0.716-1.448-1.412-2.197-2.092c-0.116-0.105-0.231-0.212-0.348-0.317
			c-0.801-0.716-1.619-1.413-2.457-2.086c-0.069-0.056-0.141-0.109-0.21-0.164c-0.766-0.609-1.549-1.197-2.345-1.77
			c-0.159-0.114-0.317-0.23-0.477-0.343c-0.858-0.605-1.73-1.19-2.621-1.751c-0.111-0.07-0.225-0.135-0.337-0.205
			c-0.783-0.486-1.58-0.951-2.387-1.402c-0.218-0.121-0.434-0.244-0.653-0.363c-0.896-0.486-1.803-0.953-2.725-1.394
			c-4.209-2.011-8.685-3.552-13.364-4.551v-88.678l53.367-41.368c5.529-4.286,6.537-12.242,2.251-17.771
			c-4.286-5.529-12.242-6.537-17.771-2.251l-37.846,29.337V13.667C266.209,6.671,260.538,1,253.542,1
			c-6.996,0-12.667,5.671-12.667,12.667v61.118L203.41,46.452c-5.58-4.22-13.524-3.117-17.743,2.463
			c-4.22,5.58-3.117,13.524,2.463,17.743l52.746,39.888v90.066c-12.632,2.696-23.803,9.332-32.156,18.57l-76.804-44.343
			l-9.143-66.901c-0.947-6.931-7.334-11.782-14.265-10.835c-6.931,0.947-11.782,7.334-10.835,14.265l6.484,47.444l-53.879-31.107
			c-6.058-3.498-13.805-1.422-17.303,4.636c-3.498,6.058-1.422,13.805,4.636,17.303l52.93,30.559l-43.27,18.28
			c-6.444,2.722-9.461,10.153-6.739,16.597c2.722,6.444,10.153,9.461,16.597,6.739l60.917-25.735l78,45.033
			c-1.889,5.852-2.921,12.089-2.921,18.57c0,6.479,1.031,12.715,2.919,18.567l-76.797,44.339L56.739,293.06
			c-6.476-2.645-13.87,0.46-16.516,6.936c-2.645,6.476,0.46,13.871,6.936,16.516l44.33,18.107l-53.879,31.107
			c-6.058,3.498-8.134,11.245-4.636,17.303c3.498,6.058,11.244,8.134,17.303,4.636l52.93-30.559l-5.804,46.613
			c-0.864,6.942,4.062,13.27,11.004,14.135c6.942,0.864,13.27-4.062,14.135-11.004l8.171-65.623l78.004-45.036
			c8.344,9.229,19.5,15.861,32.114,18.563v88.644l-53.367,41.368c-5.529,4.286-6.537,12.242-2.251,17.771
			c4.286,5.529,12.242,6.537,17.771,2.251l37.846-29.337v62.214c0,6.996,5.671,12.667,12.667,12.667
			c6.996,0,12.667-5.671,12.667-12.667v-61.118l37.466,28.333c5.58,4.22,13.524,3.117,17.743-2.463
			c4.22-5.58,3.117-13.524-2.463-17.743l-52.746-39.888v-90.011c12.656-2.691,23.847-9.337,32.212-18.593l76.749,44.311
			l9.143,66.901c0.947,6.931,7.334,11.782,14.265,10.835c6.931-0.947,11.782-7.334,10.835-14.265l-6.484-47.444l53.879,31.107
			c6.058,3.498,13.805,1.422,17.303-4.636C477.563,376.931,475.488,369.184,469.429,365.686z M253.542,289.286
			c-18.556,0-33.598-15.042-33.598-33.598s15.042-33.598,33.598-33.598c18.556,0,33.598,15.042,33.598,33.598
			S272.098,289.286,253.542,289.286z"/>
	</g>
</g>
<g id="Layer_2" display="none">
	
		<image overflow="visible" width="428" height="401" xlink:href="istockphoto-1310981865-170667a.jpg"  transform="matrix(1.6786 0 0 1.6786 -136 -42.125)">
	</image>
	<linearGradient id="SVGID_10_" gradientUnits="userSpaceOnUse" x1="256" y1="3.0231" x2="256" y2="508.9769">
		<stop  offset="0" style="stop-color:#FFDB02"/>
		<stop  offset="1" style="stop-color:#FD5E03"/>
	</linearGradient>
	<path display="inline" fill="url(#SVGID_10_)" d="M354.617,421.192c-120.706,0-218.558-97.852-218.558-218.558
		c0-88.963,53.157-165.503,129.437-199.612C127.604,5.151,16.473,117.576,16.473,255.975c0,139.729,113.273,253.002,253.002,253.002
		c98.83,0,184.412-56.674,226.052-139.288C457.478,401.816,408.314,421.192,354.617,421.192z"/>
	<linearGradient id="SVGID_11_" gradientUnits="userSpaceOnUse" x1="392.4123" y1="16.7344" x2="392.4123" y2="90.3594">
		<stop  offset="0" style="stop-color:#FFFFE7"/>
		<stop  offset="1" style="stop-color:#FFFCC2"/>
	</linearGradient>
	<path display="inline" fill="url(#SVGID_11_)" d="M417.795,69.879h-27.546l35.045-34.206c2.911-1.806,4.856-5.021,4.856-8.699
		c0-5.655-4.585-10.24-10.24-10.24h-52.88c-5.655,0-10.24,4.585-10.24,10.24c0,5.655,4.585,10.24,10.24,10.24h27.365l-35.428,34.581
		c-2.595,1.858-4.291,4.89-4.291,8.324c0,5.655,4.585,10.24,10.24,10.24h52.88c5.655,0,10.24-4.585,10.24-10.24
		C428.035,74.464,423.45,69.879,417.795,69.879z"/>
	<linearGradient id="SVGID_12_" gradientUnits="userSpaceOnUse" x1="354.6744" y1="133.4449" x2="354.6744" y2="207.0699">
		<stop  offset="0" style="stop-color:#FFFFE7"/>
		<stop  offset="1" style="stop-color:#FFFCC2"/>
	</linearGradient>
	<path display="inline" fill="url(#SVGID_12_)" d="M380.057,186.59h-27.546l35.045-34.206c2.911-1.806,4.856-5.021,4.856-8.699
		c0-5.655-4.585-10.24-10.24-10.24h-52.88c-5.655,0-10.24,4.585-10.24,10.24c0,5.655,4.585,10.24,10.24,10.24h27.365l-35.428,34.581
		c-2.595,1.858-4.291,4.89-4.291,8.324c0,5.655,4.585,10.24,10.24,10.24h52.88c5.655,0,10.24-4.585,10.24-10.24
		C390.297,191.174,385.712,186.59,380.057,186.59z"/>
	<linearGradient id="SVGID_13_" gradientUnits="userSpaceOnUse" x1="457.3873" y1="182.0625" x2="457.3873" y2="255.6875">
		<stop  offset="0" style="stop-color:#FFFFE7"/>
		<stop  offset="1" style="stop-color:#FFFCC2"/>
	</linearGradient>
	<path display="inline" fill="url(#SVGID_13_)" d="M482.77,235.207h-27.546l35.045-34.206c2.911-1.806,4.856-5.021,4.856-8.699
		c0-5.655-4.585-10.24-10.24-10.24h-52.88c-5.655,0-10.24,4.585-10.24,10.24c0,5.655,4.585,10.24,10.24,10.24h27.365l-35.428,34.581
		c-2.595,1.858-4.291,4.89-4.291,8.324c0,5.655,4.585,10.24,10.24,10.24h52.88c5.655,0,10.24-4.585,10.24-10.24
		C493.01,239.792,488.425,235.207,482.77,235.207z"/>
</g>
<g id="Layer_3">
	
		<image display="none" overflow="visible" width="512" height="512" xlink:href="8373773.png"  transform="matrix(0.7501 0 0 0.7501 63.9732 63.9732)">
	</image>
	<g display="none">
		<linearGradient id="SVGID_14_" gradientUnits="userSpaceOnUse" x1="256" y1="95.5" x2="256" y2="416.5">
			<stop  offset="0" style="stop-color:#FFDB02"/>
			<stop  offset="1" style="stop-color:#FD5E03"/>
		</linearGradient>
		<circle display="inline" fill="none" stroke="url(#SVGID_14_)" stroke-miterlimit="10" cx="256" cy="256" r="160"/>
		<linearGradient id="SVGID_15_" gradientUnits="userSpaceOnUse" x1="256" y1="126.5" x2="256" y2="385.5">
			<stop  offset="0" style="stop-color:#FFDB02"/>
			<stop  offset="1" style="stop-color:#FD5E03"/>
		</linearGradient>
		<circle display="inline" fill="none" stroke="url(#SVGID_15_)" stroke-miterlimit="10" cx="256" cy="256" r="129"/>
	</g>
	<g display="none">
		<g display="inline">
			<circle fill="#9FFFB0" cx="254" cy="111.5" r="15.5"/>
			<circle fill="#9FFFB0" cx="176.333" cy="135.5" r="15.5"/>
			<circle fill="#9FFFB0" cx="176.333" cy="200.5" r="15.5"/>
			<circle fill="#9FFFB0" cx="111.5" cy="135.5" r="15.5"/>
			<rect x="111.5" y="120" fill="#9FFFB0" width="64.833" height="31"/>
			<rect x="160.833" y="135.5" fill="#9FFFB0" width="31" height="65"/>
		</g>
		<path display="inline" fill="#9FFFB0" d="M256,96v31c71.245,0,129,57.755,129,129s-57.755,129-129,129s-129-57.755-129-129
			c0-48.08,26.309-90.006,65.312-112.192l-21.808-23.053C125.73,149.114,96,199.079,96,256c0,88.366,71.634,160,160,160
			s160-71.634,160-160S344.366,96,256,96z"/>
	</g>
	<linearGradient id="SVGID_16_" gradientUnits="userSpaceOnUse" x1="256" y1="13" x2="256" y2="499">
		<stop  offset="0" style="stop-color:#9FFFB0"/>
		<stop  offset="1" style="stop-color:#01B59B"/>
	</linearGradient>
	<path display="none" fill="url(#SVGID_16_)" d="M256,13v0.218c-0.997-0.129-2.006-0.218-3.038-0.218
		c-13.001,0-23.541,10.539-23.541,23.541s10.539,23.541,23.541,23.541c1.032,0,2.041-0.089,3.038-0.218v0.218
		c108.203,0,195.919,87.716,195.919,195.919S364.203,451.919,256,451.919S60.081,364.203,60.081,256
		c0-50.968,19.483-97.367,51.384-132.212v47.921c0,13.001,10.54,23.541,23.541,23.541c13.001,0,23.541-10.539,23.541-23.541V86.038
		c0.244-0.14,0.482-0.29,0.727-0.429l-0.727-0.768v-11.85c0-13.001-10.539-23.541-23.541-23.541H36.541
		C23.539,49.45,13,59.989,13,72.991s10.539,23.541,23.541,23.541h36.162C35.532,139.205,13,194.96,13,256
		c0,134.205,108.795,243,243,243s243-108.795,243-243S390.205,13,256,13z"/>
	<g display="none">
		<linearGradient id="SVGID_17_" gradientUnits="userSpaceOnUse" x1="238.5" y1="19.5" x2="269.5" y2="19.5">
			<stop  offset="0" style="stop-color:#9FFFB0"/>
			<stop  offset="1" style="stop-color:#01B59B"/>
		</linearGradient>
		<circle display="inline" fill="url(#SVGID_17_)" cx="254" cy="19.5" r="15.5"/>
		<g display="inline">
			<linearGradient id="SVGID_18_" gradientUnits="userSpaceOnUse" x1="111.5" y1="165.1667" x2="142.5" y2="165.1667">
				<stop  offset="0" style="stop-color:#9FFFB0"/>
				<stop  offset="1" style="stop-color:#01B59B"/>
			</linearGradient>
			<circle fill="url(#SVGID_18_)" cx="127" cy="165.167" r="15.5"/>
			<linearGradient id="SVGID_19_" gradientUnits="userSpaceOnUse" x1="111.5" y1="57.8333" x2="142.5" y2="57.8333">
				<stop  offset="0" style="stop-color:#9FFFB0"/>
				<stop  offset="1" style="stop-color:#01B59B"/>
			</linearGradient>
			<circle fill="url(#SVGID_19_)" cx="127" cy="57.833" r="15.5"/>
			<linearGradient id="SVGID_20_" gradientUnits="userSpaceOnUse" x1="111.5" y1="111.5" x2="142.5" y2="111.5">
				<stop  offset="0" style="stop-color:#9FFFB0"/>
				<stop  offset="1" style="stop-color:#01B59B"/>
			</linearGradient>
			<rect x="111.5" y="57.833" fill="url(#SVGID_20_)" width="31" height="107.333"/>
		</g>
		<g display="inline">
			<linearGradient id="SVGID_21_" gradientUnits="userSpaceOnUse" x1="4" y1="57.8333" x2="35" y2="57.8333">
				<stop  offset="0" style="stop-color:#9FFFB0"/>
				<stop  offset="1" style="stop-color:#01B59B"/>
			</linearGradient>
			<circle fill="url(#SVGID_21_)" cx="19.5" cy="57.833" r="15.5"/>
			<linearGradient id="SVGID_22_" gradientUnits="userSpaceOnUse" x1="19.5" y1="57.8333" x2="126.8333" y2="57.8333">
				<stop  offset="0" style="stop-color:#9FFFB0"/>
				<stop  offset="1" style="stop-color:#01B59B"/>
			</linearGradient>
			<rect x="19.5" y="42.333" fill="url(#SVGID_22_)" width="107.333" height="31"/>
		</g>
		<g display="inline">
			<linearGradient id="SVGID_23_" gradientUnits="userSpaceOnUse" x1="256" y1="4" x2="256" y2="508">
				<stop  offset="0" style="stop-color:#9FFFB0"/>
				<stop  offset="1" style="stop-color:#01B59B"/>
			</linearGradient>
			<path fill="url(#SVGID_23_)" d="M256,4v31c122.055,0,221,98.945,221,221s-98.945,221-221,221S35,378.055,35,256
				c0-79.277,41.75-148.79,104.457-187.783l-19.104-24.616C50.385,88.378,4,166.768,4,256c0,139.176,112.824,252,252,252
				s252-112.824,252-252S395.176,4,256,4z"/>
		</g>
	</g>
	<linearGradient id="SVGID_24_" gradientUnits="userSpaceOnUse" x1="256" y1="4" x2="256" y2="508">
		<stop  offset="0" style="stop-color:#9FFFB0"/>
		<stop  offset="1" style="stop-color:#01B59B"/>
	</linearGradient>
	<path fill="url(#SVGID_24_)" d="M256,4v0.143C255.344,4.059,254.679,4,254,4c-8.56,0-15.5,6.94-15.5,15.5S245.44,35,254,35
		c0.679,0,1.344-0.059,2-0.143V35c122.055,0,221,98.945,221,221s-98.945,221-221,221S35,378.055,35,256
		c0-66.805,29.648-126.676,76.5-167.193v76.36c0,8.56,6.94,15.5,15.5,15.5s15.5-6.94,15.5-15.5V57.833c0-8.56-6.94-15.5-15.5-15.5
		c-0.056,0-0.111,0.008-0.167,0.008v-0.008H19.5c-8.56,0-15.5,6.94-15.5,15.5c0,8.56,6.94,15.5,15.5,15.5h62.926
		C34.122,119.242,4,184.099,4,256c0,139.176,112.824,252,252,252s252-112.824,252-252S395.176,4,256,4z"/>
</g>
</svg>
